<?xml version="1.0" encoding="utf-8"?>
<!-- Generator: Adobe Illustrator 17.1.0, SVG Export Plug-In . SVG Version: 6.00 Build 0)  -->
<!DOCTYPE svg PUBLIC "-//W3C//DTD SVG 1.1//EN" "http://www.w3.org/Graphics/SVG/1.1/DTD/svg11.dtd">
<svg version="1.1" id="Layer_1" xmlns="http://www.w3.org/2000/svg" xmlns:xlink="http://www.w3.org/1999/xlink" x="0px" y="0px"
	 viewBox="0 0 1024 1024" enable-background="new 0 0 1024 1024" xml:space="preserve">
<g>
	<g>
		<path fill="#4F5AA8" d="M2,766c0-168,0-336,0-504c0.6-3.4,1.2-6.8,1.8-10.2c0-2-0.1-4-0.1-6c-0.5-2.6-1.1-5.2-1.6-7.8
			c0-5.3,0-10.7,0-16c2-10.5,4.4-21,5.9-31.5c9.4-65.7,44.6-115.3,98-151.9c25.5-17.5,55.4-26.7,86.4-30.9C203,6.3,213.5,3.9,224,2
			c4,0,8,0,12,0c2,0.6,4,1.1,5.9,1.7c1.3,0,2.6,0,4,0c1.3,0,2.7,0,4,0s2.7,0.1,4,0.1c2.7-0.6,5.4-1.2,8.1-1.8c168,0,336,0,504,0
			c2.7,0.6,5.4,1.3,8.1,1.9c1.4,0,2.7-0.1,4.1-0.1c1.3,0,2.6-0.1,4-0.1c1.3-0.6,2.6-1.1,3.9-1.7c3.3,0,6.7,0,10,0
			c13.6,2,27.3,3.6,40.9,6c89.2,15.4,148.3,66.5,176.3,152.2c11.9,36.4,12.7,74.7,12.7,112.7c0.2,159.6,0.4,319.2-0.2,478.9
			c-0.1,28.6-1.4,57.5-6.1,85.6c-14.5,87.9-65,146.6-149.4,175c-37.7,12.6-77.3,13.5-116.6,13.5c-152.6,0.2-305.3,0.3-457.9-0.1
			c-30.3-0.1-60.6-1.3-90.8-4.1c-40.2-3.7-77.9-15.7-110.5-40.8c-48.4-37.2-78.7-85-86.8-146.1C6,822.5,3.9,810.3,2,798
			c0-4,0-8,0-12c0.6-1.3,1.1-2.6,1.7-3.9c0-1.3,0-2.7,0.1-4c0-1.3,0.1-2.7,0.1-4C3.3,771.4,2.6,768.7,2,766z M349.9,239.8
			c-1.3,0.7-2.5,1.4-3.8,2.2c-19.8,4.2-37,20.1-37.6,37.1c-0.9,26.5-0.4,53-0.5,79.5c-0.7,1.1-1.5,2.3-2.2,3.4
			c-48.2,44.2-50.8,127.3-0.4,174.2c0.8,1.1,1.6,2.2,2.3,3.3c-0.1,17.3-0.3,34.6-0.3,51.9c0.1,50-0.3,99.9,0.6,149.9
			c0.5,26,16.5,42.4,42.3,46.5c5,0.4,9.9,1.2,14.9,1.2c100.3,0.1,200.6,0.1,300.9,0c4.6,0,9.2-0.8,13.9-1.2
			c24-3.4,43.6-23.1,43.8-47.1c0.5-68,0-135.9-0.1-203.9c0.3-0.8,0.6-1.7,0.9-2.5c46.1-45.3,47-124.3-0.1-170.2
			c-0.3-0.8-0.6-1.6-0.9-2.4c0.1-24.6,1.5-49.2,0-73.7c-1.3-21.9-17-42.1-39.8-46.1c-1.2-0.7-2.4-1.4-3.6-2.1
			c-4.2-0.6-8.5-1.7-12.7-1.7c-101.6-0.1-203.2-0.1-304.8,0C358.3,238.1,354.1,239.2,349.9,239.8z"/>
		<path fill="#676BB1" d="M3.8,251.8c-0.6,3.4-1.2,6.8-1.8,10.2c0-3.3,0-6.7,0-10C2.6,251.9,3.2,251.9,3.8,251.8z"/>
		<path fill="#6367AF" d="M774.1,3.9c-2.7-0.6-5.4-1.3-8.1-1.9c2.7,0,5.3,0,8,0C774,2.6,774,3.3,774.1,3.9z"/>
		<path fill="#6469B0" d="M2,766c0.6,2.7,1.3,5.4,1.9,8.1C3.3,774,2.6,774,2,774C2,771.3,2,768.7,2,766z"/>
		<path fill="#6368B0" d="M262,2c-2.7,0.6-5.4,1.2-8.1,1.8C254,3.2,254,2.6,254,2C256.7,2,259.3,2,262,2z"/>
		<path fill="#9F9CCD" d="M2,238c0.5,2.6,1.1,5.2,1.6,7.8c-0.5,0-1.1,0.1-1.6,0.2C2,243.3,2,240.7,2,238z"/>
		<path fill="#7F80BE" d="M2,246c0.5-0.1,1.1-0.2,1.6-0.2c0,2,0.1,4,0.1,6c-0.6,0.1-1.2,0.1-1.8,0.2C2,250,2,248,2,246z"/>
		<path fill="#A7A3D1" d="M241.9,3.7c-2-0.6-4-1.1-5.9-1.7c2,0,4,0,6,0C242,2.6,242,3.1,241.9,3.7z"/>
		<path fill="#8384C0" d="M249.9,3.7c-1.3,0-2.7,0-4,0c0-0.6,0.1-1.1,0.1-1.7c1.3,0,2.7,0,4,0C250,2.6,249.9,3.1,249.9,3.7z"/>
		<path fill="#7476B8" d="M249.9,3.7C250,3.1,250,2.6,250,2c1.3,0,2.7,0,4,0c0,0.6-0.1,1.2-0.1,1.8C252.5,3.8,251.2,3.8,249.9,3.7z"
			/>
		<path fill="#9493C8" d="M786,2c-1.3,0.6-2.6,1.1-3.9,1.7c0-0.6-0.1-1.1-0.1-1.7C783.3,2,784.7,2,786,2z"/>
		<path fill="#8383BF" d="M782,2c0,0.6,0.1,1.1,0.1,1.7c-1.3,0-2.6,0.1-4,0.1c0-0.6-0.1-1.2-0.1-1.8C779.3,2,780.7,2,782,2z"/>
		<path fill="#6F72B5" d="M778,2c0,0.6,0.1,1.2,0.1,1.8c-1.4,0-2.7,0.1-4.1,0.1c0-0.6-0.1-1.3-0.1-1.9C775.3,2,776.7,2,778,2z"/>
		<path fill="#7274B7" d="M2,774c0.6,0,1.3,0,1.9,0.1c0,1.3-0.1,2.7-0.1,4c-0.6,0-1.2-0.1-1.8-0.1C2,776.7,2,775.3,2,774z"/>
		<path fill="#8383BF" d="M2,778c0.6,0,1.2,0.1,1.8,0.1c0,1.3,0,2.7-0.1,4c-0.6,0-1.1,0-1.7-0.1C2,780.7,2,779.3,2,778z"/>
		<path fill="#9795C9" d="M2,782c0.6,0.1,1.1,0.1,1.7,0.1c-0.6,1.3-1.1,2.6-1.7,3.9C2,784.7,2,783.3,2,782z"/>
		<path fill="#9594C9" d="M246,2c0,0.6-0.1,1.1-0.1,1.7c-1.3,0-2.6,0-4,0c0-0.6,0.1-1.1,0.1-1.7C243.3,2,244.7,2,246,2z"/>
		<path fill="#E21B5B" d="M307.7,539.5c-0.8-1.1-1.6-2.2-2.3-3.3c0.1-58,0.3-116.1,0.4-174.2c0.7-1.1,1.5-2.3,2.2-3.4
			c15.2-12.4,31.6-22.7,51-27.5c2.7-0.7,5.1-2.9,7.6-4.3c0.5,0.8,1,1.5,1.6,2.3c-0.1,11-0.3,22-0.2,32.9c0.1,19.5,8.6,28,27.9,28.1
			c31.3,0.1,62.6,0.1,93.8,0c3.9,0,7.8-1.1,11.7-1.6c0.9,1.2,1.8,2.3,2.7,3.5c2.8,10.5,5.6,20.9,8.4,31.4c0.7,0.1,1.3,0.2,2,0.3
			c3.1-10.6,6.2-21.1,9.3-31.7c0.9-1.1,1.8-2.3,2.6-3.4c4.2,0.6,8.5,1.6,12.7,1.6c32,0.1,63.9,0.1,95.9,0.1
			c18.2,0,28.1-9.8,28.7-28.2c0.3-10.6,0.3-21.3,0.4-32c22.8,4.8,42,16.5,59.2,31.8c0.3,0.8,0.6,1.6,0.9,2.4
			c0,56.7,0.1,113.5,0.1,170.2c-0.3,0.8-0.6,1.7-0.9,2.5c-1.6,1.2-3.3,2.2-4.7,3.6c-25.7,26.6-51.4,53.2-76.9,79.9
			c-12.8,13.4-25.2,27.3-37.8,40.9c-4.8,4.9-9.6,9.8-14.4,14.7c-1.2,0.4-2.8,0.4-3.6,1.3c-10.9,11.5-21.3,23.5-32.5,34.7
			c-13.1,13.1-26.9,25.5-41,38.7c-1.4-1.3-3.9-3.5-6.1-5.8c-19.2-19.8-38.3-39.7-57.5-59.4c-2.4-2.5-5.7-4.2-8.5-6.3
			c-5.8-6.7-11.6-13.3-17.3-20C384.6,619.4,346.1,579.4,307.7,539.5z M544,687.3c0.1-15.8-12.5-29.1-27.9-29.2
			c-16.2-0.1-29.7,12.9-29.8,28.7c-0.1,14.3,14.7,29.1,28.9,29.1C530.8,715.8,543.8,702.8,544,687.3z M618.7,612
			c16.3,0.1,29.3-12.8,29.1-29c-0.1-13.9-14.4-28.2-28.4-28.6c-15.7-0.4-29.2,13.1-29.4,29.2C589.9,598.9,602.9,611.9,618.7,612z
			 M544,583.4c0.1-15.4-13.4-29.1-28.5-28.8c-15.3,0.3-29.5,14.7-29.3,29.8c0.2,15.2,13.6,27.7,29.6,27.7
			C531.3,612,543.9,599.2,544,583.4z M647.8,480.9c0.1-15.8-12.5-28.7-28.3-28.9c-15.9-0.2-29.2,12.2-29.5,27.6
			c-0.3,16.2,13,30.2,28.4,29.9C633.4,509.2,647.8,495.2,647.8,480.9z M411.5,612c16.5,0.2,29.3-12.1,29.8-28.4
			c0.4-14.3-13.9-28.8-28.7-29.1c-15.4-0.3-28.3,12.7-28.6,28.7C383.7,599.8,395.3,611.8,411.5,612z M515.1,452
			c-15.7,0-28.5,12.6-28.8,28.4c-0.3,14.2,14.4,29.2,28.8,29.2c15.3,0,28.8-13.2,28.9-28.4C544.1,464.9,531.4,452,515.1,452z
			 M412,452c-16,0-28.2,12.5-28.1,28.5s12.7,28.9,28.1,28.9c15.5,0,29.5-14,29.4-29.4C441.4,465.1,427.7,452,412,452z"/>
		<path fill="#262325" d="M307.7,539.5c38.5,39.9,77,79.9,115.4,119.8c-2.5-0.4-5.1-0.9-7.6-1.3c-15-2.3-29,7.9-31.8,23.1
			c-2.9,15.7,6.4,30.8,21.2,34.3c15.2,3.6,29.5-4.7,33.3-19.7c1.3-5.3,1.6-10.9,2.3-16.4c2.9,2.1,6.1,3.8,8.5,6.3
			c19.2,19.7,38.3,39.6,57.5,59.4c2.2,2.3,4.7,4.4,6.1,5.8c14.1-13.3,27.9-25.7,41-38.7c11.2-11.2,21.6-23.2,32.5-34.7
			c0.8-0.8,2.4-0.9,3.6-1.3c0.1,4.3,0,8.6,0.2,13c0.6,13.7,12.4,26,26,27c12.8,0.9,24.6-6.2,30.2-18.4c5.1-11,2.4-20.6-8.7-31.7
			c-9.4-9.4-19.7-10.8-33.2-4.5c12.6-13.6,25-27.5,37.8-40.9c25.5-26.8,51.3-53.3,76.9-79.9c1.4-1.4,3.1-2.4,4.7-3.6
			c0.1,68,0.6,135.9,0.1,203.9c-0.2,24-19.8,43.7-43.8,47.1c-4.2-0.6-8.4-1.8-12.6-1.8c-101.5-0.1-202.9-0.1-304.4,0
			c-4.2,0-8.4,1.1-12.6,1.8c-25.7-4.2-41.8-20.5-42.3-46.5c-0.9-49.9-0.5-99.9-0.6-149.9C307.4,574.1,307.6,556.8,307.7,539.5z
			 M720.5,737.6c0.3,0,0.7-0.1,1-0.1c0-63.8,0-127.5,0-191.3c-0.3,0-0.7,0-1,0C720.5,610,720.5,673.8,720.5,737.6z"/>
		<path fill="#262325" d="M723.4,361.7c-17.2-15.3-36.4-27-59.2-31.8c-0.2-0.7-0.4-1.3-0.5-2c0.7-15.2-5.9-24.6-22.1-31.7
			c-3-0.7-5.9-2.1-8.9-2.2c-78.5-0.1-157-0.1-235.4,0c-2.9,0-5.9,1.4-8.8,2.2c-14.7,4.9-22.5,14.7-21.9,30.5
			c-2.5,1.5-4.9,3.7-7.6,4.3c-19.4,4.8-35.8,15-51,27.5c0.1-26.5-0.5-53,0.5-79.5c0.6-17,17.9-33,37.6-37.1c1.4,0.1,2.8,0.2,4.2,0.3
			c4.2,0.6,8.4,1.7,12.7,1.7c101.4,0.1,202.8,0.1,304.3,0c4.2,0,8.4-1.1,12.7-1.7c1.3-0.1,2.6-0.2,3.8-0.3
			c22.8,4.1,38.5,24.3,39.8,46.1C724.9,312.5,723.6,337.2,723.4,361.7z M720.5,351.5c0.3,0,0.7,0,1,0c0-20.5,0-41,0-61.4
			c-0.3,0-0.7,0-1,0C720.5,310.6,720.5,331,720.5,351.5z"/>
		<path fill="#E41F6F" d="M305.7,362.1c-0.1,58.1-0.3,116.1-0.4,174.2C254.9,489.3,257.6,406.3,305.7,362.1z"/>
		<path fill="#E41F6F" d="M724.5,534.4c0-56.7-0.1-113.5-0.1-170.2C771.4,410.1,770.6,489.1,724.5,534.4z"/>
		<path fill="#252321" d="M350.2,787.8c4.2-0.6,8.4-1.7,12.6-1.8c101.5-0.1,202.9-0.1,304.4,0c4.2,0,8.4,1.2,12.6,1.8
			c-4.6,0.4-9.2,1.2-13.9,1.2c-100.3,0.1-200.6,0.1-300.9,0C360.1,789,355.1,788.3,350.2,787.8z"/>
		<path fill="#292735" d="M683.7,241.9c-1.3,0.1-2.6,0.2-3.8,0.3c-109.9,0-219.7,0-329.6,0.1c-1.4-0.1-2.8-0.2-4.2-0.3
			c1.3-0.7,2.5-1.4,3.8-2.2c110.1,0,220.1,0,330.2,0C681.3,240.5,682.5,241.2,683.7,241.9z"/>
		<path fill="#45489E" d="M680.1,239.8c-110.1,0-220.1,0-330.2,0c4.2-0.6,8.5-1.7,12.7-1.7c101.6-0.1,203.2-0.1,304.8,0
			C671.6,238.1,675.8,239.2,680.1,239.8z"/>
		<path fill="#4F5AA8" d="M366.6,326.8c-0.6-15.8,7.2-25.6,21.9-30.5c84.4,0,168.7,0,253.1-0.1c16.2,7,22.8,16.5,22.1,31.7
			c-2.8,0.4-5.9,1.8-8.4,1.1c-19.3-6.1-38-1.6-56.4,3.2c-31.9,8.3-57.3,25.9-72.4,56.3c-0.9,1.1-1.8,2.3-2.6,3.4
			c-6.6,0-13.2,0-19.7,0c-0.9-1.2-1.8-2.3-2.7-3.5c-11.6-25.4-32.6-40.6-57.2-51c-24.3-10.3-49.8-14-76.1-8.3
			C367.6,328.3,367.1,327.5,366.6,326.8z"/>
		<path fill="#E41F6F" d="M526.5,388.4c15.1-30.3,40.5-47.9,72.4-56.3c18.3-4.8,37.1-9.3,56.4-3.2c2.4,0.8,5.6-0.7,8.4-1.1
			c0.2,0.7,0.4,1.3,0.5,2c-0.1,10.7-0.1,21.3-0.4,32c-0.5,18.4-10.5,28.2-28.7,28.2c-32,0.1-63.9,0.1-95.9-0.1
			C535,390,530.8,389,526.5,388.4z"/>
		<path fill="#E41F6F" d="M368.2,329c26.3-5.7,51.8-2,76.1,8.3c24.6,10.4,45.6,25.7,57.2,51c-3.9,0.6-7.8,1.6-11.7,1.6
			c-31.3,0.1-62.6,0.1-93.8,0c-19.4-0.1-27.9-8.6-27.9-28.1C367.9,351,368.1,340,368.2,329z"/>
		<path fill="#4F5AA8" d="M604.1,661.4c13.5-6.3,23.9-4.9,33.2,4.5c11.1,11.1,13.8,20.7,8.7,31.7c-5.6,12.1-17.4,19.3-30.2,18.4
			c-13.6-1-25.5-13.2-26-27c-0.2-4.3-0.1-8.6-0.2-13C594.4,671.2,599.2,666.3,604.1,661.4z"/>
		<path fill="#E41F6F" d="M544,687.3c-0.1,15.6-13.1,28.5-28.7,28.6c-14.2,0.1-29-14.8-28.9-29.1c0.1-15.8,13.6-28.8,29.8-28.7
			C531.5,658.2,544.1,671.4,544,687.3z"/>
		<path fill="#4F5AA8" d="M440.4,679.3c-0.7,5.5-1,11.1-2.3,16.4c-3.7,15-18.1,23.3-33.3,19.7c-14.7-3.5-24-18.6-21.2-34.3
			c2.8-15.2,16.8-25.4,31.8-23.1c2.6,0.4,5.1,0.9,7.6,1.3C428.9,666,434.7,672.6,440.4,679.3z"/>
		<path fill="#E41F6F" d="M618.7,612c-15.8-0.1-28.8-13.1-28.7-28.4c0.2-16.1,13.7-29.6,29.4-29.2c14,0.4,28.3,14.8,28.4,28.6
			C648,599.1,635,612.1,618.7,612z"/>
		<path fill="#E41F6F" d="M544,583.4c-0.1,15.9-12.7,28.7-28.2,28.7c-16,0-29.3-12.5-29.6-27.7c-0.2-15.1,13.9-29.5,29.3-29.8
			C530.5,554.2,544.1,567.9,544,583.4z"/>
		<path fill="#E41F6F" d="M647.8,480.9c-0.1,14.3-14.4,28.3-29.4,28.6c-15.4,0.3-28.7-13.7-28.4-29.9c0.3-15.3,13.7-27.8,29.5-27.6
			C635.3,452.3,647.9,465.1,647.8,480.9z"/>
		<path fill="#E41F6F" d="M411.5,612c-16.2-0.2-27.8-12.3-27.5-28.8c0.2-16,13.2-29,28.6-28.7c14.8,0.3,29.1,14.7,28.7,29.1
			C440.8,599.9,428,612.2,411.5,612z"/>
		<path fill="#E41F6F" d="M515.1,452c16.2,0,29,12.9,28.9,29.2c-0.1,15.3-13.6,28.5-28.9,28.4c-14.3,0-29.1-15-28.8-29.2
			C486.7,464.6,499.4,452,515.1,452z"/>
		<path fill="#E41E6F" d="M412,452c15.6,0,29.3,13.1,29.4,28.1c0.1,15.3-13.9,29.3-29.4,29.4c-15.4,0-28-12.9-28.1-28.9
			C383.8,464.5,396.1,452.1,412,452z"/>
		<path fill="#33292D" d="M504.1,391.8c6.6,0,13.2,0,19.7,0c-3.1,10.6-6.2,21.1-9.3,31.7c-0.7-0.1-1.3-0.2-2-0.3
			C509.8,412.8,506.9,402.3,504.1,391.8z"/>
		<path fill="#262322" d="M720.5,737.6c0-63.8,0-127.6,0-191.4c0.3,0,0.7,0,1,0c0,63.8,0,127.5,0,191.3
			C721.1,737.5,720.8,737.6,720.5,737.6z"/>
		<path fill="#262323" d="M350.2,242.2c109.9,0,219.7,0,329.6-0.1c-4.2,0.6-8.4,1.7-12.7,1.7c-101.4,0.1-202.8,0.1-304.3,0
			C358.7,243.9,354.5,242.8,350.2,242.2z"/>
		<path fill="#252320" d="M641.6,296.2c-84.4,0-168.7,0-253.1,0.1c2.9-0.8,5.9-2.2,8.8-2.2c78.5-0.1,157-0.1,235.4,0
			C635.7,294.1,638.6,295.5,641.6,296.2z"/>
		<path fill="#262322" d="M720.5,351.5c0-20.5,0-40.9,0-61.4c0.3,0,0.7,0,1,0c0,20.5,0,41,0,61.4
			C721.2,351.5,720.8,351.5,720.5,351.5z"/>
	</g>
</g>
</svg>
