<?xml version="1.0" encoding="utf-8"?>
<!-- Generator: Adobe Illustrator 17.1.0, SVG Export Plug-In . SVG Version: 6.00 Build 0)  -->
<!DOCTYPE svg PUBLIC "-//W3C//DTD SVG 1.1//EN" "http://www.w3.org/Graphics/SVG/1.1/DTD/svg11.dtd">
<svg version="1.1" id="Layer_1" xmlns="http://www.w3.org/2000/svg" xmlns:xlink="http://www.w3.org/1999/xlink" x="0px" y="0px"
	 viewBox="0 0 50 50" enable-background="new 0 0 50 50" xml:space="preserve">
<path fill="#FFFFFF" d="M43,37.5l-0.1,0.2c-4.8,5.7-11.1,8.9-17.9,8.9s-13.1-3.2-17.9-8.9L7,37.5l0-0.2c0.9-6,4.1-10.8,8.8-13.6
	l0.3-0.2l0.3,0.3c2.3,2.4,5.3,3.7,8.6,3.7s6.3-1.3,8.6-3.7l0.3-0.3l0.3,0.2c4.8,2.8,7.9,7.6,8.8,13.6L43,37.5z M25,25
	c5.9,0,10.7-4.8,10.7-10.7S30.9,3.5,25,3.5S14.3,8.3,14.3,14.2S19.1,25,25,25z"/>
</svg>
