<?xml version="1.0" encoding="utf-8"?>
<!-- Generator: Adobe Illustrator 17.1.0, SVG Export Plug-In . SVG Version: 6.00 Build 0)  -->
<!DOCTYPE svg PUBLIC "-//W3C//DTD SVG 1.1//EN" "http://www.w3.org/Graphics/SVG/1.1/DTD/svg11.dtd">
<svg version="1.1" xmlns="http://www.w3.org/2000/svg" xmlns:xlink="http://www.w3.org/1999/xlink" x="0px" y="0px"
	 viewBox="0 0 1024 1024" enable-background="new 0 0 1024 1024" xml:space="preserve">
<g id="Layer_2_1_">
	<rect x="271" y="245" fill="#FFFFFF" width="434" height="427"/>
</g>
<g id="Layer_1">
	<g id="Layer_2">
		<path fill="#FFFFFF" d="M640,370c-0.2,0-0.4-0.1-0.7-0.1c1.2-2.5,0.5-5.9-3-6.9c-14.7-4.3-30.6-4.9-46.3-3.7
			c-8.4-2.1-16.9-3.4-25.4-2.8c0-0.1,0-0.2,0-0.2c4.6-0.3,9.2-0.7,13.7-1c6.5-0.6,6.4-9.4,0-10c-5-0.5-10.1-0.9-15.2-1.4
			c-0.5-1.8-1.1-3.5-1.7-5.2c-0.5-8.8-2.1-17.6-3.2-26.3c-2.1-16.4-1.2-33.2-5.6-49.3c-1.3-4.7-8.4-4.8-9.6,0
			c-2.1,8-3.2,16.2-3.9,24.4c-0.1,0-0.3,0-0.4,0c-1.3-3.2-2.5-6.4-3.8-9.6c-0.7-3.3-1.4-6.5-2.2-9.7c-0.4-1.7-1.6-2.8-3-3.3
			c-4.5-10.8-9.7-21.2-17-30.5c-3.2-4.1-9.6,0.4-8.4,4.9c1.6,5.8,3.8,11.3,6.3,16.7c-0.7,0.8-1.1,1.9-1,3.3
			c0.6,6.9,1.1,13.8,1.8,20.7c-7.7-4.6-15.8-8.2-25-8.7c-3.3-0.2-5.6,3.3-4.8,6.3c0.6,2.4,1.6,4.6,2.7,6.7c-0.7,0.6-1.3,1.4-1.5,2.4
			c-2,7.9-2.9,15.8-3.1,23.7c-3.2-2-8.3-0.9-7.8,3.8c0.9,8.2,2.3,16.3,4.1,24.3c-20.3-0.7-40.6-1-60.9-0.8c-0.2-0.1-0.5-0.3-0.7-0.4
			c-2-1.1-4.2-0.7-5.7,0.5c-5.5,0.1-11,0.2-16.5,0.4c-5.8,0.2-6.7,8-1.3,9.8c5.5,1.8,11.1,3.3,16.7,4.5c0,0.2,0,0.4,0,0.6
			c-8.9,0.8-17.8,1.7-26.7,2.8c-3.5,0.5-6.5,4-4.3,7.5c3.2,5.1,7.8,7.3,13.7,7.6c2.5,0.2,5.2,1,7.8,1.9c-5.7-0.5-11.3-1.1-17-1.6
			c-5.8-0.5-6.1,7.2-1.9,9.5c-0.6,2.8,1,6.2,4.7,6.2c3.4,0,6.8,0,10.2,0.1c1.8,1,3.6,2.1,5.4,3.2c0.3,0.9,0.5,1.7,0.8,2.6
			c-0.2,0.1-0.3,0.1-0.5,0.2c-2.3,0.8-4.6,3.5-3.5,6.2c1.7,4.3,4.3,8.4,7.5,11.7c-1.7-0.1-3.5,0-5.2,0.3c-0.9,0.2-1.7,0.7-2.3,1.4
			c-2.4,0.3-4.8,0.9-7.1,1.7c-2.4,0.9-4.4,3.4-3.5,6.2c4.4,13.2,12.3,21.6,25.9,25.7c1.3,0.4,2.6,0.7,3.9,1.1c0.1,0.7,0.2,1.3,0.3,2
			c0.2,1.7,0.5,3.4,0.7,5.2c0.8,5.6,10.5,4.3,9.8-1.3c-0.1-0.4-0.1-0.9-0.2-1.3l0,0c-0.1-0.9-0.2-1.7-0.4-2.6c0.3,0,0.6,0.1,0.9,0.1
			c0.8,1.6,1.5,3.3,2.3,4.9c1.8,3.8,8.4,2.9,9.1-1.2c0.2-1,0.3-2,0.4-3c0.3,0,0.7,0,1,0c1.4,10.5,2.6,21,3.7,31.2
			c1.1,10,2.4,20,4.8,29.7c1.7,6.9,4.2,15.9,11.5,18.7c0.7,0.3,1.5,0.3,2.3,0.2c0.2,0.5,0.3,1,0.5,1.5c1.4,4.2,6.7,4.8,9.1,1.2
			c8.9-13.5,10.3-31.1,13.9-46.5c1-4.2,1.9-8.3,2.9-12.5c0.3,5.8,0.6,11.6,1,17.4c-0.4,0.5-0.7,1-0.9,1.7c-1.3,4.6-2.4,9.2-3.3,13.8
			c-2.1,0.4-4,2-4,4.7c0.1,12.4-0.9,25-0.2,37.5c-0.4,17,0.2,34.1,0.2,51.1l0,0c-2.5,0-5.1,1.8-5.1,4.9c0.2,14.9-0.6,29.8,2,44.5
			c0.6,3.5,4.1,4.2,6.7,3.1c0.2,3.1,0.3,6.2,0.5,9.3c0.3,5.5,8.4,7,9.8,1.3c3.7-14.9,6.1-30.1,8-45.4c0.7,0.9,1.5,1.7,2.2,2.5
			c2.5,2.6,6.1,1.5,7.7-1c1.6,4.8,3.2,9.6,4.8,14.4c-0.6,13.3-0.1,26.7,3.3,39.5c1.1,4.2,7.1,4.8,9.1,1.3c1.4,3.4,3.2,6.7,5.5,9.6
			c2.2,2.8,7.9,1.4,8.4-2.2c0.1-0.5,0.1-0.9,0.2-1.4c2.4,0.7,5.3-0.5,6.5-3.3c5.9-14.2,3.3-31.4,1.4-46.2
			c-2.4-17.8-4.6-35.6-6.5-53.4c-0.2-1.7-0.4-3.3-0.5-5c0.6-4.9,1-9.9,1.3-14.9c0.5-9.6,0.4-19.5-1-29.1c0.4-12.2,0.6-24.5,0.4-36.7
			c0.9-0.6,1.6-1.5,2-2.5c2.9-7.9,1.3-17.1,0.2-25.1c-0.2-1.7-0.5-3.5-0.9-5.2c4.4,2.2,9.2,3.6,14.1,3.5c9.4-0.1,14.7-7.4,20.7-13.5
			c1.7-1.8,1.8-4,0.8-5.9c0.4-0.1,0.9-0.2,1.3-0.3c9.1-1.9,18.2-1.5,27.4-1.7c8.3-0.2,18.2-0.5,25.3-5.3c2.8-1.9,3.7-7,0-8.6
			c-2.5-1.1-5.1-2.1-7.7-2.9c-0.6-0.9-1.5-1.6-2.8-1.9c-0.3-0.1-0.7-0.1-1-0.2c0.9-1.1,1.2-2.5,0.6-4.2c0,0,0-0.1-0.1-0.1
			c1.4-1.5,1.8-4.2,0.6-5.9c-2.7-3.8-5.1-7.6-6.5-11.9c-0.2-1.1-0.5-2.2-0.9-3.3c-0.3-0.7-0.6-1.3-1.1-1.8c0-0.1-0.1-0.2-0.1-0.3
			c-0.1-0.5-0.3-0.9-0.6-1.3c2-1,4-2,6.1-3c3.9-1.2,7.8-2.4,11.6-3.9c2.7-1,4-3.8,3.4-6.1c0.2,0,0.4,0,0.6,0
			C644.1,379.6,645.7,371.2,640,370z M499.8,547.2c-0.1-4.3-0.1-8.6-0.2-12.9c0.9,0.6,1.9,1,2.9,1.1c-0.6,4.7-1.1,9.4-1.7,14.1
			C500.4,548.8,500.1,548,499.8,547.2z M454.6,373.4c1.2,0.2,2.4,0.4,3.6,0.6c0,0.7-0.1,1.3-0.1,2c-1.6-0.3-3.1-0.7-4.7-1
			c-1.1-0.5-2.2-1.1-3.2-1.6c-0.9-1-1.7-2.1-2.5-3.1c1.2,0.2,2.4,0.4,3.6,0.6C451.8,372.1,452.8,373.1,454.6,373.4z M530.7,479.6
			c-0.5-4.1-1.5-8-2.9-11.8c0-0.7,0-1.4,0-2.1c1,0.4,2,0.4,3,0.2c0.2,5.2,0.2,10.5,0.1,15.8C530.9,481,530.8,480.3,530.7,479.6z
			 M593.1,377.2c0,0.1,0.1,0.2,0.2,0.4c-1.2-0.1-2.5-0.2-3.7-0.3c-0.6-0.3-1.2-0.5-1.8-0.8c0.6,0,1.3-0.1,1.9-0.1
			C590.9,376.7,592,376.9,593.1,377.2z M466.9,420.3c0.1,0,0.2,0,0.3,0.1c0.7,1.1,1.4,2.2,2.1,3.3c0,0.1,0,0.2,0,0.3
			c-0.8-0.1-1.7-0.2-2.5-0.4C466.9,422.6,466.9,421.4,466.9,420.3z M446.3,430.4c0.5,0.1,1,0.2,1.6,0.2c2.3,2.7,4.5,5.4,6.5,8.3
			c-1.5-0.6-3-1.4-4.3-2c-1-0.5-2-1-3-1.5C446.8,433.7,446.6,432.1,446.3,430.4z M466.7,437.9c0-1.5,0.1-3,0.1-4.5
			c1.1,0.2,2.1,0.4,3.2,0.5c-0.1,1.2-0.2,2.4-0.4,3.6C468.6,437.6,467.7,437.8,466.7,437.9z M612.8,418.6c0.2,0,0.4,0,0.6,0.1
			c0.4,0,0.8,0,1.1,0c0.3,0.4,0.7,0.9,1,1.4c-0.8-0.2-1.7-0.4-2.5-0.7C612.9,419.1,612.9,418.8,612.8,418.6z M466.3,450.1
			c0.8-0.2,1.4-0.6,2-1.1c-0.9,7.5-1.8,15.1-2.7,22.7C465.7,464.4,466,457.2,466.3,450.1z M518.1,578.9c0,1,0,1.9,0.1,2.9
			c0.2,7.8,0.5,15.7,0.8,23.5c-2.3-7.3-4.5-14.7-6.8-22C514.7,583.5,517.4,581.5,518.1,578.9z M534.8,655.8c0.2-3,0.3-6,0.3-9
			c0.3,2.7,0.6,5.5,1,8.2c0,1.8-0.1,3.7-0.2,5.5C535.5,659,535.1,657.4,534.8,655.8z M404.7,432.2c-3.5-2.3-5.8-5.8-7.5-9.6
			c1-0.1,1.9-0.2,2.9-0.2c3.6,2.7,7.5,5,11.4,7.1c0.6,2.2,1.2,4.5,1.7,6.7C410.2,435.1,407.4,433.9,404.7,432.2z M452.6,475.4
			c-0.9-8.7-2.2-17.2-3.5-25.8c1.6-0.1,3.2-0.2,4.8-0.3c0.8,0.2,1.6,0.5,2.4,0.6c-0.7,18-1.5,36.2,0.4,54c-0.1-0.3-0.1-0.5-0.2-0.8
			C454.6,494,453.6,484.7,452.6,475.4z M471.1,503.9c-0.6,2.6-1.2,5.3-1.9,7.9c4.5-20.4,6.2-41.5,8.9-62.2c0.2-1.2,0.3-2.4,0.4-3.5
			c1.3-0.2,2.7-0.4,4-0.7c0.4,0.6,0.8,1.1,1.1,1.7c-2.3,10.8-4.7,21.6-7.2,32.3C474.6,487.6,472.9,495.8,471.1,503.9z M558.9,452
			c-2.3-0.1-4.7-0.8-6.9-1.9c5.2-1.2,10.4-2.6,15.6-3.9c0.7,0.1,1.5,0.3,2.2,0.5C566.9,449.7,563.7,452.2,558.9,452z"/>
	</g>
	<g id="Layer_1_1_">
		<g>
			<g>
				<path fill="#61BC51" d="M2,764c0-3.3,0-6.7,0-10c1.3-4.1,3.8-8.2,3.8-12.3C6,600.6,6,459.4,5.8,318.3c0-10.1-2.5-20.2-3.8-30.4
					c0-7.3,0-14.7,0-22c0.6-2.7,1.3-5.4,1.9-8c-0.1-2-0.2-4-0.2-6.1c0-1.3,0-2.6,0-4c-0.6-2-1.1-4-1.7-5.9c0-5.3,0-10.7,0-16
					c0.7-2,1.9-3.9,2.2-5.9c2.1-13.8,3.3-27.7,6-41.3c10.6-52.3,36.9-94.8,79.1-127.9c34.3-26.9,73.6-40.3,116.3-45.1
					c4.2-0.5,8.3-2.5,12.4-3.7c5.3,0,10.7,0,16,0c2.6,0.6,5.2,1.1,7.9,1.7c2,0,4,0.1,6.1,0.1c1.3,0,2.7,0,4,0c2,0,4,0.1,6,0.1
					c2.7-0.7,5.3-1.3,8-2c7.3,0,14.7,0,22,0c3.9,0.7,7.7,1.9,11.6,1.9c143,0.1,285.9,0.1,428.9,0c3.9,0,7.7-1.3,11.6-1.9
					c7.3,0,14.7,0,22,0c2.7,0.6,5.4,1.3,8,1.9c2-0.1,4-0.1,6-0.2c1.3-0.6,2.6-1.2,3.9-1.7c5.3,0,10.7,0,16,0c14,2,28,3.7,41.9,6.1
					c85.6,14.8,143.4,63.6,173.1,144.8c13.2,36.1,14.7,74.4,14.7,112.4c0.3,157.6,0.4,315.2,0.1,472.8c-0.1,28.9-1.4,58-4.1,86.8
					c-4.2,43.8-19,83.7-47.8,117.8c-32.1,38.1-71.5,65.3-120.9,74.2c-28.7,5.2-58.2,8.4-87.3,8.6c-167.6,0.8-335.2,0.7-502.8,0
					c-27.8-0.1-55.9-3.4-83.4-7.8c-56.3-9-99.8-40.6-133.6-84.7c-21.1-27.6-33-60.5-37.9-95.3c-1.8-11.9-4-23.7-6-35.6
					c0-5.3,0-10.7,0-16c0.6-1.3,1.1-2.6,1.7-4c0-1.3,0-2.7,0-4s0-2.7,0-4c0.1-1.3,0.1-2.7,0.2-4C3.3,768,2.6,766,2,764z
					 M584.7,656.2c4.4-0.2,8.8-0.4,13.1-0.5c31.5-3.6,62.9-34.5,66.6-69.7c0.5,0,1,0,1.6-0.1c0.7-3,1.9-6,1.9-9
					c0.1-105.2,0.1-210.3,0-315.5c0-3.8-1.5-7.6-2.3-11.4c-0.6-0.1-1.2-0.1-1.8-0.1c-0.5-0.3-0.9-0.4-1.5-0.2
					c-2.9-1-5.8-2.9-8.7-2.9c-93.4-0.2-186.8-0.2-280.2,0c-3.3,0-6.6,2-9.9,3.1c-0.6,0-1.1,0-1.7,0c-0.7,3.9-1.9,7.7-1.9,11.6
					c-0.1,91.5-0.1,183.1,0,274.6c0,3.9,1.1,7.8,1.7,11.6c0.2,6.8,0.3,13.6,0.5,20.4c0.7,7.6,0.8,15.2,2.1,22.6
					c5.4,32.5,35.4,61.5,65.8,64.8c1.2,0.1,2.5,0.2,3.7,0.4c0.9,0.3,1.9,1,2.8,1c48.1,0.1,96.2,0.2,144.3,0.2
					C582.2,657.2,583.5,656.6,584.7,656.2z M290,10c-3.5-0.7-7-1.8-10.6-1.9C265.9,7.9,252.4,8,239,8c0.8,0.4,2,1.4,3.1,1.4
					C258.1,9.7,274,9.8,290,10c4.9,0.7,9.7,1.9,14.6,1.9C444.2,12,583.9,12,723.5,12c3.6,0,7.2,0,10.8,0c0-0.7,0-1.3,0-2
					C586.2,10,438.1,10,290,10z M525.9,227.7c31.9,0.1,63.9,0.3,95.8,0.1c3.2,0,7-1.9,9.6-4c27.7-22.8,55.4-45.7,82.8-68.8
					c7.8-6.6,15.1-13.8,24.4-22.4c-4.3-0.3-5.8-0.8-6.8-0.4c-28.4,11.9-56.5,24.4-85.2,35.5c-19.6,7.6-39.8,13.9-61.3,12.8
					c-12.5-0.7-24.9-1.6-37.3-2.5c-3.5-3.4-6.9-6.7-10.4-10.1c-11.7-16.7-19-35.2-22.6-55.8c-6.3,24.3-12.2,47.9-33.3,63.7
					c-2,1.3-4,2.6-6.1,3.9c-38.1,3-74.6-3-109.8-18.3c-16.4-7.1-33.3-12.9-49.9-19.4c-8.9-3.7-17.9-7.4-26.8-11.1
					c-0.7,1.3-1.4,2.5-2.1,3.8c6.5,5,13,10,19.6,15c11.8,9.9,23.5,19.9,35.3,29.7c19.3,16.1,38.8,32,58.2,48.1
					C442,227.7,484,227.7,525.9,227.7z M588.2,931.9c24.2,0,48.8-0.1,73.4,0.1c3.8,0,8.1,0.7,11.3,2.5c15,8.7,30.5,14.2,48.3,12.5
					c8.6-0.8,17.3,0.3,26-0.3c5.2-0.3,11-0.9,15.3-3.5c17.4-10.6,35.9-13.7,55.9-12.2c13.6,1,27.3,0.2,41,0.2c3.1,0,6.2-0.4,8.5-0.6
					c-5.6-7-11.9-12.9-15.5-20.1c-9-18.1-6.8-37.2-2.1-56.1c8.5-34.2,12.9-68.2,4.3-103.6c-11.1-45.4-36.8-78.3-79.8-94.7
					c-31.1-11.9-64.5-10.9-95.9,1.6c-38.9,15.6-65.7,43.7-76,84.7c-8.9,35.7-6.3,71.3,3.8,107.1c4.4,15.6,3.6,33.8,0.6,49.9
					C605,910.8,595.1,920.6,588.2,931.9z M213.7,671.1c-3.1,2.5-5.9,4.8-8.7,7.2c-16.2,14.2-29,30.8-36.9,51.1
					c-11.1,28.5-12.6,58.5-14.3,88.5c-0.9,15.6,7.1,26.3,18.3,35.6c2.5,2.1,4.9,5,6.1,8c10.1,26.3,25.1,49.2,47.8,66.1
					c15.9,11.8,33.1,21,54.2,18.6c14.4-1.6,30.1,0.9,43.2-3.9c34.2-12.4,56.5-38.4,70.7-71.6c2.9-6.7,5.3-14.7,10.5-19
					c11.9-10,20.7-21,19.3-37c-1.2-14-4.8-27.8-5.8-41.9c-2.3-34.7-15.7-64-41-90.5c6.5,1.5,11.3,2.5,18.5,4.2
					c-2.9-4.6-4-8.1-6.3-9.7c-8.9-6.1-17.7-13.4-27.7-17c-12.2-4.4-26-4.6-38.5-8.5c-24.8-7.8-50.1-5.8-75.2-5
					c-16.8,0.6-31.4,8.9-45.1,21.2C207.3,668.9,210.2,669.9,213.7,671.1z M13.5,734.3c0.4,0,0.9,0,1.3,0c0-141.9,0-283.9,0-425.8
					c-0.4,0-0.9,0-1.3,0C13.5,450.4,13.5,592.4,13.5,734.3z M389.7,1016.5c0,0.3,0,0.6,0,0.9c114.9,0,229.8,0,344.7,0
					c0-0.3,0-0.6,0-0.9C619.4,1016.5,504.6,1016.5,389.7,1016.5z M483,124.8c7.6-0.2,17-8,14.3-13.2c-2.9-5.6-9.3-10.9-15.3-13
					c-6.1-2.1-14,7.4-13.5,14.1C468.9,119.5,475.5,125,483,124.8z M757.1,122.2c10.7-0.3,15.2-4.1,14.7-12.9
					c-0.5-8.1-4.7-12.9-13.2-13.1c-8.6-0.2-13.1,5.5-13,16.1C745.7,119.9,750.1,122.6,757.1,122.2z M526.1,82.3
					c0-7.4-5.5-13.9-12-14C507,68.2,502,73.8,501.9,82c-0.1,8.7,4.4,14.3,11.8,13.7C521.6,95,526,90.4,526.1,82.3z M558,112.1
					c0.1-7.3-5.6-13.9-12-13.9c-6.4-0.1-13.6,6.8-13.9,13.2c-0.3,6.2,6.3,12.3,13.3,12.8C554.2,124.6,558.6,121.1,558,112.1z
					 M270.2,97.9c-8.3-0.1-13.7,4.2-14,11.4c-0.3,6.3,6.5,13.1,13.3,13.4c8,0.3,12.2-4.3,12.6-12.8
					C282.5,101.6,279.2,97.3,270.2,97.9z"/>
				<path fill="#69BE56" d="M2,288c1.3,10.1,3.8,20.2,3.8,30.4c0.3,141.1,0.2,282.3,0,423.4c0,4.1-2.5,8.2-3.8,12.3
					C2,598.7,2,443.3,2,288z"/>
				<path fill="#69BE56" d="M740,2c-3.9,0.7-7.7,1.9-11.6,1.9C585.5,4,442.5,4,299.6,3.9c-3.9,0-7.7-1.3-11.6-1.9
					C438.7,2,589.3,2,740,2z"/>
				<path fill="#7EC46B" d="M770,3.9c-2.7-0.6-5.4-1.3-8-1.9c2.7,0,5.3,0,8,0C770,2.6,770,3.3,770,3.9z"/>
				<path fill="#7EC46B" d="M266,2c-2.7,0.7-5.3,1.3-8,2c0-0.7,0-1.3,0-2C260.7,2,263.3,2,266,2z"/>
				<path fill="#BADDAC" d="M241.9,3.7c-2.6-0.6-5.2-1.1-7.9-1.7c2.7,0,5.3,0,8,0C242,2.6,241.9,3.1,241.9,3.7z"/>
				<path fill="#7DC46A" d="M3.9,258c-0.6,2.7-1.3,5.4-1.9,8c0-2.7,0-5.3,0-8C2.6,258,3.3,258,3.9,258z"/>
				<path fill="#7EC46B" d="M2,764c0.6,2,1.3,4,1.9,6c-0.6,0-1.3,0-1.9,0C2,768,2,766,2,764z"/>
				<path fill="#8BC97A" d="M770,3.9c0-0.6,0-1.3,0-1.9c2,0,4,0,6,0c0,0.6,0,1.2,0.1,1.7C774.1,3.8,772.1,3.9,770,3.9z"/>
				<path fill="#8BC97B" d="M3.9,258c-0.6,0-1.3,0-1.9,0c0-2,0-4,0-6c0.6,0,1.1-0.1,1.7-0.1C3.8,253.9,3.9,255.9,3.9,258z"/>
				<path fill="#8AC979" d="M258,2c0,0.7,0,1.3,0,2c-2,0-4-0.1-6-0.1c0-0.6,0-1.2,0-1.8C254,2,256,2,258,2z"/>
				<path fill="#9FD190" d="M241.9,3.7C242,3.1,242,2.6,242,2c2,0,4,0,6,0c0,0.6,0,1.2-0.1,1.8C245.9,3.8,243.9,3.7,241.9,3.7z"/>
				<path fill="#A2D292" d="M2,242c0.6,2,1.1,4,1.7,5.9c-0.6,0-1.1,0-1.7,0.1C2,246,2,244,2,242z"/>
				<path fill="#8AC97A" d="M2,770c0.6,0,1.3,0,1.9,0c-0.1,1.3-0.1,2.7-0.2,4c-0.6,0-1.2,0-1.8,0C2,772.7,2,771.3,2,770z"/>
				<path fill="#91CC81" d="M2,774c0.6,0,1.2,0,1.8,0c0,1.3,0,2.7,0,4c-0.6,0-1.2,0-1.7-0.1C2,776.7,2,775.3,2,774z"/>
				<path fill="#9BD08B" d="M2,778c0.6,0,1.2,0,1.7,0.1c0,1.3,0,2.7,0,4c-0.6,0-1.1,0-1.7,0C2,780.7,2,779.3,2,778z"/>
				<path fill="#A2D393" d="M2,782c0.6,0,1.1,0,1.7,0c-0.6,1.3-1.1,2.6-1.7,4C2,784.7,2,783.3,2,782z"/>
				<path fill="#96CD86" d="M776.1,3.7c0-0.6-0.1-1.2-0.1-1.7c1.3,0,2.7,0,4,0C778.7,2.6,777.4,3.2,776.1,3.7z"/>
				<path fill="#98CE89" d="M2,248c0.6,0,1.1-0.1,1.7-0.1c0,1.3,0,2.6,0,4c-0.6,0-1.1,0.1-1.7,0.1C2,250.7,2,249.3,2,248z"/>
				<path fill="#92CC82" d="M247.9,3.8c0-0.6,0.1-1.2,0.1-1.8c1.3,0,2.7,0,4,0c0,0.6,0,1.2,0,1.8C250.6,3.8,249.3,3.8,247.9,3.8z"/>
				<path fill="#6D778A" d="M662.4,249.9c0.5-0.2,1-0.1,1.5,0.2c-0.1,0.6-0.2,1.3-0.3,2c-0.5,0-1,0-1.5,0c-0.7,3.9-1.9,7.7-2,11.6
					c-0.1,99-0.1,197.9,0,296.9c0,3.9,1.2,7.7,1.9,11.6c0.5,4.7,1.1,9.3,1.6,14h0.9c-3.6,35.2-35.1,66.1-66.6,69.7
					c-3.2-0.6-6.4-1.6-9.7-1.6c-49.5-0.1-99-0.1-148.5,0c-3.2,0-6.4,1.1-9.6,1.6c-30.4-3.4-60.4-32.4-65.8-64.8
					c-1.2-7.5-1.4-15.1-2.1-22.6c0.4-0.1,0.9-0.2,1.4-0.3c0.8-3.5,2.3-6.9,2.3-10.4c0.1-102.5,0.1-205.1,0-307.6
					C464.7,250,563.5,249.9,662.4,249.9z M482,291.9c-0.7,3-1.9,5.9-1.9,8.9c-0.2,19.7-0.1,39.4-0.1,59.1c-23.4,0-46.8,0-70.3,0
					c0,0.6,0,1.2,0,1.9c23.9,0,47.8,0,71.8,0c-3.5,0.6-7,1.6-10.5,1.7c-19.9,0.2-39.9,0.3-59.8,0c-9.2-0.1-7.9,6.1-7.8,11.5
					c0.1,4.9-2,11.4,6.8,11.4c31.2-0.3,62.4-0.5,93.7-0.7c0.8-0.6,1.5-1.1,2.3-1.7c0.6,0,1.2,0,1.7,0c0.6-1.5,1.8-3,1.8-4.6
					c0.1-27,0.1-53.9,0-80.9c0-1.5-1.2-3-1.8-4.6c-0.6,0-1.1,0-1.7,0c-0.8-1.2-1.6-2.3-2.4-3.5c-7.1-3.5-13.9-3.8-20.5,1.2
					C482.9,291.7,482.4,291.8,482,291.9z M546.9,362.1c0.3-0.1,0.7-0.2,1-0.3c23.5,0,47,0,70.5,0c0-0.6,0-1.1,0-1.7
					c-23.5,0-47,0-70.5,0c0-19.6,0.1-39.2-0.1-58.8c0-3.8-1.6-7.5-2.5-11.2c-0.5,0.1-1.1,0.2-1.6,0.3c-6.9,0-13.9-0.1-20.8-0.1
					c-1.2,2.6-3.5,5.3-3.5,7.9c-0.3,27.2-0.3,54.4-0.1,81.5c0,2.1,2.2,4.1,3.4,6.2c31.5,0.1,63.1,0.2,94.6,0.4
					c9.6,0.1,6.8-6.9,7.1-12c0.3-5.4,0.9-10.9-7.5-10.7c-13.3,0.3-26.6,0.3-39.9,0c-10.5-0.2-21-1-31.5-1.5l0.7,0.1L546.9,362.1z
					 M406,428c3.8,0.7,7.6,1.9,11.5,1.9c20.8,0.2,41.7,0.1,62.5,0.1c0,57.8,0,115.7,0.1,173.5c0,4.1,1.4,8.3,2.2,12.4
					c11.5,7.3,23.4,4.1,23.4-6.4c0.1-66,0.1-132,0.2-197.9c0-5.6-1.5-8.7-7.9-8.7c-28.6,0.1-57.3-0.2-85.9,0.1
					c-2.8,0-7.6,3.1-7.9,5.2c-0.6,5.3,0.8,10.9,1.4,16.4c0,0.5,0.2,1,0.4,1.5C406,426.7,406,427.3,406,428z M546.6,428.1
					c19.6,0,39.2,0.1,58.7-0.1c5.5-0.1,11-1.1,16.6-1.7c0.7-3.1,1.8-6.2,1.9-9.3c0.4-14.2,0.3-14.3-14.1-14.3
					c-25.9,0-51.9,0.2-77.8,0c-7.2-0.1-9.9,2.2-9.9,9.8c0.2,65.2,0.2,130.4-0.1,195.6c0,8.7,3,12.5,11.6,11.4c3.3-0.4,6.5-1,9.7-1.5
					c1.6-3.9,4.4-7.7,4.5-11.6c0.3-55.2,0.2-110.3,0.1-165.5c0-3.5-1.1-7.1-1.6-10.6C546.4,429.4,546.5,428.7,546.6,428.1z
					 M407.7,388c0.1,0.7,0.2,1.3,0.3,2c15.6,0,31.3,0,46.9,0c15.8,0,31.6,0,47.3,0c0-0.7,0-1.3,0-2c-3.3,0-6.5,0-9.8,0
					C464.3,388,436,388,407.7,388z M612.4,399.5c0-0.3,0-0.6,0-1c-24.3,0-48.6,0-72.8,0c0,0.3,0,0.6,0,1
					C563.9,399.5,588.1,399.5,612.4,399.5z M474,399.5c0.1-0.3,0.1-0.7,0.2-1c-20.8,0-41.7,0-62.5,0c0,0.3,0,0.7,0,1
					C432.4,399.5,453.2,399.5,474,399.5z"/>
				<path fill="#EE2148" d="M588.2,931.9c6.9-11.3,16.8-21.1,18.9-32.3c3-16.2,3.8-34.3-0.6-49.9c-10.1-35.8-12.8-71.4-3.8-107.1
					c10.3-41,37.1-69.1,76-84.7c31.4-12.6,64.8-13.5,95.9-1.6c43,16.4,68.7,49.3,79.8,94.7c8.7,35.4,4.3,69.4-4.3,103.6
					c-4.7,18.9-6.9,38,2.1,56.1c3.6,7.2,10,13,15.5,20.1c-2.3,0.2-5.4,0.6-8.5,0.6c-13.7,0.1-27.4,0.8-41-0.2
					c-20-1.5-38.5,1.6-55.9,12.2c-4.3,2.6-10.1,3.1-15.3,3.5c-8.6,0.5-17.4-0.5-26,0.3c-17.7,1.6-33.3-3.8-48.3-12.5
					c-3.2-1.9-7.5-2.5-11.3-2.5C637,931.8,612.4,931.9,588.2,931.9z M704.9,742.4c-13.9,3.3-26,5-37.2,9.1
					c-14.1,5.1-24.4,14.9-25.8,31c-1,11.9-1.6,23.8-1.7,35.7c-0.3,34.1,11.1,63.3,36.2,87c30.1,28.3,71.3,28.1,100,2.8
					c28.6-25.2,40.4-59.3,41.1-96.4c0.3-17.5-5.3-35.2-8.4-53.7C763,784.8,702.5,785.4,671.2,770
					C684.2,763.9,697.1,758.4,704.9,742.4z M789.6,739.2c7-12.6,12.6-23,18.7-34c-12-3.1-23-3.7-31.3-8.8c-8.3-5-13.9-14.4-23-24.3
					c-7.1,14.4-12.5,25.6-19.4,39.7C760.3,708.9,775.8,719.6,789.6,739.2z"/>
				<path fill="#3F6BB4" d="M213.7,671.1c-3.5-1.2-6.5-2.2-10.8-3.7c13.7-12.2,28.3-20.6,45.1-21.2c25.1-0.8,50.4-2.9,75.2,5
					c12.5,3.9,26.2,4.1,38.5,8.5c10,3.6,18.7,10.8,27.7,17c2.4,1.6,3.4,5.1,6.3,9.7c-7.2-1.6-12-2.7-18.5-4.2
					c25.3,26.4,38.7,55.8,41,90.5c0.9,14,4.6,27.8,5.8,41.9c1.4,16-7.4,27.1-19.3,37c-5.2,4.3-7.7,12.3-10.5,19
					c-14.2,33.2-36.5,59.1-70.7,71.6c-13.1,4.8-28.8,2.3-43.2,3.9c-21.2,2.3-38.4-6.9-54.2-18.6c-22.8-16.9-37.7-39.8-47.8-66.1
					c-1.2-3-3.5-5.9-6.1-8c-11.2-9.3-19.3-20-18.3-35.6c1.8-30,3.3-60,14.3-88.5c7.9-20.3,20.6-37,36.9-51.1
					C207.8,675.9,210.6,673.7,213.7,671.1z M193.9,789.7c-4.1,29.2,2.3,56.5,16.2,82.1c10.1,18.5,24.2,34,43,43.1
					c35.9,17.3,75.7,7.4,101-23.9c25.4-31.4,32.8-68,29.9-107.4c-0.1-1.9-1.7-4.3-3.4-5.3c-16.8-10.5-33.7-20.7-51-31.2
					c-31.5,21.6-68.1,31.3-106.7,34.3c-7.4,0.6-15.1-1-22.6-1.5c7.1-4.8,14.1-9.7,21-14.4c-21.6-5.6-27.7-1.2-27.7,20.3
					C193.6,787.1,193.8,788.4,193.9,789.7z"/>
				<path fill="#6D778A" d="M481.8,175.9c21.1-15.7,27-39.4,33.3-63.7c3.6,20.6,10.9,39.1,22.6,55.8c-2.7-0.7-5.3-1.4-9.9-2.7
					c4.9,5.7,8.4,10.4,12.6,14.1c1.2,1.1,5-0.8,7.6-1.3c12.4,0.8,24.9,1.8,37.3,2.5c21.5,1.2,41.7-5.1,61.3-12.8
					c28.6-11.2,56.8-23.7,85.2-35.5c1-0.4,2.5,0.1,6.8,0.4c-9.3,8.6-16.6,15.8-24.4,22.4c-27.5,23.1-55.1,46-82.8,68.8
					c-2.6,2.1-6.4,4-9.6,4c-31.9,0.2-63.9,0-95.8-0.1c-2.9-0.6-5.8-1.6-8.6-1.6c-36.2-0.1-72.3-0.1-108.5,0c-2.9,0-5.8,1-8.7,1.6
					c-19.4-16-38.8-32-58.2-48.1c-11.8-9.8-23.5-19.8-35.3-29.7c3.2,0,6.4,0,10.3,0c-0.3-2.2-0.6-4.9-0.9-7.7
					c16.7,6.4,33.6,12.3,49.9,19.4c35.1,15.3,71.7,21.2,109.8,18.3c-0.3,2.4-0.5,4.8-0.8,7.3c5.4,1.9,17.7-7.9,16.7-13.4
					C488.3,174.5,485,175.2,481.8,175.9z M536,222c16.7-0.7,33.3-1.3,50-2c-0.4,1.1-0.9,2.2-1.3,3.2c8.4,0,16.8,0,25.3,0
					c0-1.4-0.1-2.8-0.1-4.2c-3.9,0.3-7.9,0.6-11.8,0.9c-2.4-1.3-4.8-3.8-7.3-3.8c-45.5-0.4-90.9-0.5-136.4-0.6c-7.3,0-14.6,0-22,0
					c0,1-0.1,1.9-0.1,2.9c4,0.5,8.1,1.4,12.1,1.5c16.6,0.2,33.1,0.1,49.7,0.1C508,220.7,522,221.3,536,222z"/>
				<path fill="#62BC50" d="M13.5,734.3c0-141.9,0-283.9,0-425.8c0.4,0,0.9,0,1.3,0c0,141.9,0,283.9,0,425.8
					C14.4,734.3,13.9,734.3,13.5,734.3z"/>
				<path fill="#6E738C" d="M662.4,249.9c-98.8,0-197.6,0.1-296.4,0.1c-0.4,0-0.8-0.1-1.3-0.2c-0.4-0.1-0.7,0-1,0.2
					c3.3-1.1,6.6-3.1,9.9-3.1c93.4-0.2,186.8-0.2,280.2,0C656.6,246.9,659.5,248.9,662.4,249.9z"/>
				<path fill="#62BC52" d="M290,10c148.1,0,296.2,0,444.3,0c0,0.7,0,1.3,0,2c-3.6,0-7.2,0-10.8,0c-139.7,0-279.3,0-419-0.1
					C299.7,11.9,294.9,10.7,290,10L290,10z"/>
				<path fill="#62BC52" d="M389.7,1016.5c114.9,0,229.8,0,344.7,0c0,0.3,0,0.6,0,0.9c-114.9,0-229.8,0-344.7,0
					C389.7,1017.2,389.7,1016.8,389.7,1016.5z"/>
				<path fill="#63BC4E" d="M665.6,250.2c0.8,3.8,2.3,7.6,2.3,11.4c0.1,105.2,0.1,210.3,0,315.5c0,3-1.3,6-1.9,9
					c0-96.6,0-193.2,0-289.8C666,280.8,665.7,265.5,665.6,250.2z"/>
				<path fill="#58A470" d="M665.6,250.2c0.1,15.3,0.4,30.6,0.4,46c0,96.6,0,193.2,0,289.8c-0.5,0-1,0.1-1.6,0.1h-0.9
					c0.2-4.3,0.5-8.6,0.5-13c0-96,0-192,0-288c0-11-0.3-22-0.4-33c0.1-0.7,0.2-1.3,0.3-2C664.4,250.1,665,250.1,665.6,250.2z"/>
				<path fill="#58A46F" d="M363.6,568c-0.5,0.1-0.9,0.1-1.4,0.3c-0.2-6.8-0.3-13.6-0.5-20.4c0.1-99.3,0.2-198.5,0.2-297.8
					c0.6,0,1.1,0,1.7,0c0.3-0.2,0.7-0.3,1-0.2c-0.2,4.3-0.6,8.6-0.6,12.9c0,74.5,0,149-0.1,223.5C363.9,513.5,363.7,540.7,363.6,568
					z"/>
				<path fill="#63BC4E" d="M362,250c-0.1,99.3-0.2,198.5-0.2,297.8c-0.6-3.9-1.7-7.8-1.7-11.7c-0.1-91.5-0.1-183.1,0-274.6
					C360.1,257.7,361.3,253.9,362,250z"/>
				<path fill="#6D7889" d="M483,124.8c-7.4,0.2-14-5.3-14.6-12.2c-0.5-6.7,7.4-16.2,13.5-14.1c6,2.1,12.3,7.4,15.3,13
					C500,116.9,490.6,124.6,483,124.8z"/>
				<path fill="#6D7789" d="M757.1,122.2c-7.1,0.4-11.4-2.2-11.5-10c-0.1-10.5,4.4-16.2,13-16.1c8.5,0.2,12.7,5,13.2,13.1
					C772.3,118.1,767.8,121.9,757.1,122.2z"/>
				<path fill="#6D7889" d="M526.1,82.3c-0.1,8.1-4.5,12.8-12.4,13.4c-7.4,0.6-11.9-5-11.8-13.7c0.1-8.2,5.1-13.8,12.2-13.8
					C520.6,68.3,526.2,74.8,526.1,82.3z"/>
				<path fill="#6D7789" d="M558,112.1c0.6,9-3.8,12.6-12.6,12c-7-0.4-13.6-6.5-13.3-12.8c0.3-6.4,7.6-13.3,13.9-13.2
					C552.5,98.2,558.1,104.8,558,112.1z"/>
				<path fill="#6C7889" d="M270.2,97.9c9-0.7,12.3,3.7,11.9,11.9c-0.4,8.6-4.7,13.2-12.6,12.8c-6.7-0.3-13.5-7.1-13.3-13.4
					C256.5,102.2,261.9,97.9,270.2,97.9z"/>
				<path fill="#6E738C" d="M430.1,655.7c3.2-0.6,6.4-1.6,9.6-1.6c49.5-0.1,99-0.1,148.5,0c3.2,0,6.4,1.1,9.7,1.6
					c-4.4,0.2-8.8,0.4-13.1,0.5c-50.3-0.1-100.6-0.1-150.9-0.2C432.6,655.9,431.3,655.8,430.1,655.7z"/>
				<path fill="#6D778A" d="M433.8,656.1c50.3,0.1,100.6,0.1,150.9,0.2c-1.3,0.4-2.5,1-3.8,1c-48.1,0-96.2-0.1-144.3-0.2
					C435.7,657,434.8,656.4,433.8,656.1z"/>
				<path fill="#6C7789" d="M316,142.2c0.3,2.8,0.7,5.5,0.9,7.7c-3.9,0-7.1,0-10.3,0c-6.5-5-13-10-19.6-15c0.7-1.3,1.4-2.5,2.1-3.8
					C298.1,134.8,307.1,138.5,316,142.2z"/>
				<path fill="#6D768A" d="M400.1,227.6c2.9-0.5,5.8-1.6,8.7-1.6c36.2-0.1,72.3-0.1,108.5,0c2.9,0,5.8,1.1,8.6,1.6
					C484,227.7,442,227.7,400.1,227.6z"/>
				<path fill="#6C7789" d="M481.8,175.9c3.3-0.7,6.6-1.4,9.8-2.1c1,5.5-11.3,15.3-16.7,13.4c0.3-2.5,0.6-4.9,0.8-7.3
					C477.7,178.5,479.7,177.2,481.8,175.9z"/>
				<path fill="#6C7789" d="M548,178.1c-2.6,0.5-6.4,2.4-7.6,1.3c-4.3-3.7-7.7-8.4-12.6-14.1c4.6,1.2,7.2,1.9,9.9,2.7
					C541.1,171.4,544.5,174.7,548,178.1z"/>
				<path fill="#64BD53" d="M290,10c-16-0.2-31.9-0.3-47.9-0.6c-1.1,0-2.3-1-3.1-1.4c13.4,0,26.9-0.1,40.4,0.1
					C283,8.2,286.5,9.3,290,10L290,10z"/>
				<path fill="#70728C" d="M663.6,252c0.1,11,0.4,22,0.4,33c0,96,0.1,192,0,288c0,4.3-0.3,8.6-0.5,13c-0.5-4.7-1.1-9.3-1.6-14
					c0-106.7,0-213.3,0-320C662.5,252,663.1,252,663.6,252z"/>
				<path fill="#6D788A" d="M662,252c0,106.7,0,213.3,0,320c-0.7-3.9-1.9-7.7-1.9-11.6c-0.1-99-0.1-197.9,0-296.9
					C660.1,259.7,661.4,255.9,662,252z"/>
				<path fill="#6F728C" d="M363.6,568c0.1-27.3,0.4-54.5,0.4-81.8c0.1-74.5,0-149,0.1-223.5c0-4.3,0.4-8.6,0.6-12.9
					c0.4,0.1,0.8,0.1,1.3,0.2c0,102.5,0.1,205.1,0,307.6C365.9,561.1,364.4,564.5,363.6,568z"/>
				<path fill="#727D8D" d="M543.3,617.8c0.9-4.1,2.5-8.1,2.5-12.2c0.3-58.5,0.3-117,0.5-175.5c0.6,3.5,1.6,7.1,1.6,10.6
					c0.1,55.2,0.2,110.3-0.1,165.5C547.8,610.1,544.9,613.9,543.3,617.8z"/>
				<path fill="#6A7388" d="M482,428c0.2,42.3,0.4,84.6,0.5,126.9c0.1,20.3-0.1,40.7-0.1,61c-0.8-4.1-2.2-8.3-2.2-12.4
					C480,545.7,480,487.8,480,430c0-0.7,0-1.3,0-2h1H482z"/>
				<path fill="#6C768A" d="M522.9,290.2c-0.1,31.9-0.1,63.8-0.2,95.7c-1.2-2.1-3.3-4.1-3.4-6.2c-0.2-27.2-0.2-54.4,0.1-81.5
					C519.5,295.4,521.7,292.8,522.9,290.2z"/>
				<path fill="#6C7689" d="M407.7,388c28.3,0,56.5,0,84.8,0c3.3,0,6.5,0,9.8,0c0,0.7,0,1.3,0,2c-15.8,0-31.6,0-47.3,0
					c-15.6,0-31.3,0-46.9,0C408,389.3,407.9,388.7,407.7,388z"/>
				<path fill="#ADD1B9" d="M503.9,385.7c0-0.6,0-1.2,0-1.8c0-30.6-0.1-61.1-0.1-91.7c0-0.6,0-1.1,0.1-1.7c0.8,1.2,1.6,2.3,2.4,3.5
					c0,30-0.1,60-0.1,90.1C505.4,384.6,504.7,385.1,503.9,385.7z"/>
				<path fill="#6C7589" d="M508,294c0.6,1.5,1.8,3,1.8,4.6c0.1,27,0.1,53.9,0,80.9c0,1.5-1.2,3-1.8,4.6C508,354,508,324,508,294z"
					/>
				<path fill="#727F8C" d="M508,294c0,30,0,60,0,90c-0.6,0-1.2,0-1.7,0c0-30,0.1-60,0.1-90.1C506.9,294,507.4,294,508,294z"/>
				<path fill="#6D768A" d="M612.4,399.5c-24.3,0-48.6,0-72.8,0c0-0.3,0-0.6,0-1c24.3,0,48.6,0,72.8,0
					C612.4,398.8,612.4,399.2,612.4,399.5z"/>
				<path fill="#727D8D" d="M546.6,428.1c2.4-0.7,4.8-2.1,7.2-2.1c22.7-0.1,45.4,0.1,68.1,0.2c-5.5,0.6-11,1.7-16.6,1.7
					C585.8,428.1,566.2,428,546.6,428.1z"/>
				<path fill="#707D8D" d="M482,428h-1h-1c-24.7,0-49.3,0-74,0c0-0.7,0-1.3,0-2c25.3,0.1,50.6,0.1,75.9,0.2
					C482.1,426.8,482.1,427.4,482,428z"/>
				<path fill="#697187" d="M481.5,361.9c-23.9,0-47.8,0-71.8,0c0-0.6,0-1.2,0-1.9c23.4,0,46.8,0,70.3,0c0.6,0,1.1,0,1.7,0
					c0.1,0.7,0.3,1.4,0.4,2.1L481.5,361.9z"/>
				<path fill="#6C7589" d="M406,428c24.7,0,49.3,0,74,0c0,0.7,0,1.3,0,2c-20.8,0-41.7,0.1-62.5-0.1
					C413.6,429.9,409.8,428.7,406,428z"/>
				<path fill="#697187" d="M548,360c23.5,0,47,0,70.5,0c0,0.6,0,1.1,0,1.7c-23.5,0-47,0-70.5,0C548,361.2,548,360.6,548,360z"/>
				<path fill="#90A9A4" d="M545.5,362h-0.8l-0.8-0.1c-0.1-23.3-0.2-46.5-0.3-69.8c0.1-0.6,0.1-1.3,0.1-2c0.5-0.1,1.1-0.2,1.6-0.3
					c0.2,4.9,0.5,9.9,0.6,14.8c0.4,19.1,0.6,38.2,1,57.3h-0.7L545.5,362z"/>
				<path fill="#687086" d="M546.9,362.1c-0.3-19.1-0.6-38.2-1-57.3c-0.1-4.9-0.4-9.9-0.6-14.8c0.9,3.7,2.5,7.5,2.5,11.2
					c0.3,19.6,0.1,39.2,0.1,58.8c0,0.6,0,1.1,0,1.7C547.6,361.8,547.3,361.9,546.9,362.1z"/>
				<path fill="#6A7388" d="M481.7,360c-0.6,0-1.1,0-1.7,0c0-19.7-0.1-39.4,0.1-59.1c0-3,1.2-5.9,1.9-8.9
					C481.9,314.6,481.8,337.3,481.7,360z"/>
				<path fill="#A6C8B5" d="M481.7,360c0.1-22.7,0.2-45.4,0.3-68.1c0.5-0.1,0.9-0.2,1.4-0.3c0.4,0.1,0.7,0.3,1,0.5
					c-0.1,23.3-0.3,46.5-0.4,69.8c-0.6,0-1.2,0-1.9,0.1C482,361.4,481.8,360.7,481.7,360z"/>
				<path fill="#6C768A" d="M474,399.5c-20.8,0-41.6,0-62.3,0c0-0.3,0-0.7,0-1c20.8,0,41.7,0,62.5,0
					C474.1,398.8,474,399.1,474,399.5z"/>
				<path fill="#61BC51" d="M704.9,742.4c-7.8,16.1-20.7,21.5-33.8,27.6c31.3,15.4,91.8,14.9,137.9-12.1c3.1,18.5,8.7,36.1,8.4,53.7
					c-0.6,37.1-12.4,71.1-41.1,96.4c-28.7,25.3-69.8,25.6-100-2.8c-25.1-23.7-36.5-52.9-36.2-87c0.1-11.9,0.7-23.8,1.7-35.7
					c1.4-16.1,11.7-25.9,25.8-31C678.8,747.4,690.9,745.7,704.9,742.4z M693.7,874.9c7.9,17.5,24.3,26.3,41,22.8
					c13.7-2.9,24.5-12.9,24.6-22.8C737.7,874.9,716.2,874.9,693.7,874.9z M757.1,806.9c0.2,9.2,8.5,17.5,17.1,17
					c8.1-0.5,15.9-9,15.8-17.4c-0.1-9.4-8-17-17.2-16.6C763.7,790.3,756.9,797.6,757.1,806.9z M700.6,806.9
					c0.1-9.3-6.6-16.6-15.6-17c-9.4-0.4-17,7-17,16.6c0,8.9,7.2,17,15.6,17.4C691.9,824.4,700.4,815.8,700.6,806.9z"/>
				<path fill="#62BB51" d="M789.6,739.2c-13.8-19.7-29.3-30.3-54.9-27.5c6.9-14.1,12.3-25.2,19.4-39.7c9,9.9,14.7,19.3,23,24.3
					s19.3,5.6,31.3,8.8C802.2,716.3,796.6,726.6,789.6,739.2z"/>
				<path fill="#61BC51" d="M200.3,779.8c7.5,0.6,15.1,2.1,22.6,1.5c38.7-3,75.3-12.7,106.7-34.3c17.3,10.6,34.3,20.8,51,31.2
					c1.6,1,3.2,3.4,3.4,5.3c2.9,39.3-4.5,76-29.9,107.4c-25.3,31.3-65.1,41.3-101,23.9c-18.8-9.1-33-24.6-43-43.1
					c-13.9-25.6-20.3-52.9-16.2-82.1C196,786.4,198.1,783.1,200.3,779.8z M292.3,876.3c-11.7,0.6-23.4,1.2-35.4,1.8
					c8.2,19,28.9,28,46.2,19.9c9.1-4.3,18.2-9.6,18.4-21.8c-0.2-0.6-0.5-1.7-0.7-1.7c-20.4-0.1-40.8-0.1-61.2-0.1c0,0.6,0,1.2,0,1.8
					C270.6,876.3,281.5,876.3,292.3,876.3z M225.6,801.7c-0.1,9,7.8,17.7,16.3,18.1c8.2,0.4,18.1-9.5,18.1-18.1
					c0-8.9-9.1-17.8-18-17.7C232.9,784.3,225.7,792,225.6,801.7z M335.9,783.7c-9.7-0.1-17.7,7.5-17.9,17.1
					c-0.1,8.5,8.3,17.2,17.1,17.5c8.8,0.4,17.2-7.7,17.3-16.6C352.6,790.7,346.2,783.7,335.9,783.7z"/>
				<path fill="#63BC4E" d="M200.3,779.8c-2.1,3.3-4.3,6.6-6.4,9.9c-0.1-1.3-0.3-2.7-0.3-4c0-21.5,6.1-25.9,27.7-20.3
					C214.4,770.2,207.4,775,200.3,779.8z"/>
				<path fill="#6D7788" d="M494,220c-16.6,0-33.1,0.1-49.7-0.1c-4,0-8.1-1-12.1-1.5c0-1,0.1-1.9,0.1-2.9c7.3,0,14.6,0,22,0
					c45.5,0.1,90.9,0.2,136.4,0.6c2.4,0,4.8,2.5,7.3,3.8c-4,0-8,0-12,0c-16.7,0.7-33.3,1.3-50,2C522,221.3,508,220.7,494,220z"/>
				<path fill="#6D778B" d="M494,220c14,0.7,28,1.3,42,2C522,221.3,508,220.7,494,220z"/>
				<path fill="#6D768A" d="M586,220c4,0,8,0,12,0c3.9-0.3,7.9-0.6,11.8-0.9c0,1.4,0.1,2.8,0.1,4.2c-8.4,0-16.8,0-25.3,0
					C585.1,222.2,585.6,221.1,586,220z"/>
				<path fill="#E72F49" d="M693.7,874.9c22.6,0,44.1,0,65.6,0c0,9.9-10.8,19.9-24.6,22.8C718,901.1,701.5,892.4,693.7,874.9z"/>
				<path fill="#EC2248" d="M757.1,806.9c-0.2-9.3,6.6-16.6,15.7-17c9.2-0.4,17.2,7.2,17.2,16.6c0.1,8.4-7.7,17-15.8,17.4
					C765.6,824.4,757.3,816.1,757.1,806.9z"/>
				<path fill="#EC2248" d="M700.6,806.9c-0.1,8.9-8.7,17.5-17,17.1c-8.4-0.5-15.6-8.5-15.6-17.4c0-9.6,7.5-17,17-16.6
					C694,790.3,700.7,797.6,700.6,806.9z"/>
				<path fill="#3F6CB3" d="M321.6,876.2c-0.2,12.3-9.3,17.6-18.4,21.8c-17.3,8.1-38.1-0.9-46.2-19.9c12.1-0.6,23.7-1.2,35.4-1.8
					C302.1,876.3,311.8,876.3,321.6,876.2z"/>
				<path fill="#3F6CB3" d="M225.6,801.7c0.1-9.7,7.3-17.4,16.4-17.6c8.9-0.2,18,8.7,18,17.7c0,8.6-9.8,18.5-18.1,18.1
					C233.4,819.4,225.5,810.7,225.6,801.7z"/>
				<path fill="#3F6CB2" d="M335.9,783.7c10.3,0.1,16.7,7.1,16.5,18c-0.2,9-8.6,17-17.3,16.6c-8.8-0.4-17.2-9.1-17.1-17.5
					C318.2,791.2,326.2,783.6,335.9,783.7z"/>
				<path fill="#63BC4E" d="M321.6,876.2c-9.7,0-19.5,0.1-29.2,0.1c-10.9,0-21.8,0-32.7,0c0-0.6,0-1.2,0-1.8c20.4,0,40.8,0,61.2,0.1
					C321.1,874.6,321.3,875.6,321.6,876.2z"/>
			</g>
		</g>
	</g>
</g>
</svg>
