<?xml version="1.0" encoding="utf-8"?>
<!-- Generator: Adobe Illustrator 17.1.0, SVG Export Plug-In . SVG Version: 6.00 Build 0)  -->
<!DOCTYPE svg PUBLIC "-//W3C//DTD SVG 1.1//EN" "http://www.w3.org/Graphics/SVG/1.1/DTD/svg11.dtd">
<svg version="1.1" id="Layer_1" xmlns="http://www.w3.org/2000/svg" xmlns:xlink="http://www.w3.org/1999/xlink" x="0px" y="0px"
	 viewBox="0 0 1024 1024" enable-background="new 0 0 1024 1024" xml:space="preserve">
<g>
	<path fill-rule="evenodd" clip-rule="evenodd" fill="#FFFFFF" d="M512.4,13.1c-282.5,0-511.6,229-511.6,511.6
		c0,226,146.6,417.8,349.8,485.4c25.6,4.7,35-11.1,35-24.6c0-12.2-0.5-52.5-0.7-95.2c-142.3,30.9-172.3-60.4-172.3-60.4
		c-23.3-59.1-56.8-74.9-56.8-74.9c-46.4-31.8,3.5-31.1,3.5-31.1c51.4,3.6,78.4,52.7,78.4,52.7c45.6,78.2,119.7,55.6,148.9,42.5
		c4.6-33.1,17.8-55.6,32.5-68.4C305.5,737.8,186,693.9,186,497.9c0-55.8,20-101.5,52.7-137.3c-5.3-12.9-22.8-64.9,5-135.4
		c0,0,43-13.7,140.7,52.4c40.8-11.3,84.6-17,128-17.2c43.5,0.2,87.3,5.9,128.2,17.2c97.6-66.2,140.5-52.4,140.5-52.4
		c27.8,70.5,10.3,122.5,5,135.4c32.8,35.8,52.6,81.5,52.6,137.3c0,196.5-119.7,239.7-233.6,252.4c18.3,15.9,34.7,47,34.7,94.7
		c0,68.4-0.6,123.5-0.6,140.4c0,13.6,9.2,29.6,35.1,24.5C877.6,942.3,1024,750.6,1024,524.6C1024,242.1,795,13.1,512.4,13.1z"/>
	<path fill="#FFFFFF" d="M194.6,747.6c-1.1,2.5-5.1,3.3-8.8,1.6c-3.7-1.7-5.8-5.1-4.6-7.7c1.1-2.6,5.1-3.3,8.8-1.6
		C193.8,741.5,195.9,745,194.6,747.6L194.6,747.6z M188.3,742.9"/>
	<path fill="#FFFFFF" d="M215.3,770.7c-2.4,2.3-7.2,1.2-10.4-2.4c-3.4-3.6-4-8.3-1.5-10.6c2.5-2.3,7.1-1.2,10.5,2.4
		C217.2,763.7,217.9,768.4,215.3,770.7L215.3,770.7z M210.5,765.4"/>
	<path fill="#FFFFFF" d="M235.5,800.1c-3.1,2.2-8.3,0.1-11.4-4.4c-3.1-4.5-3.1-10,0.1-12.2c3.2-2.2,8.2-0.2,11.4,4.3
		C238.7,792.4,238.7,797.9,235.5,800.1L235.5,800.1z M235.5,800.1"/>
	<path fill="#FFFFFF" d="M263.1,828.6c-2.8,3.1-8.8,2.3-13.1-2c-4.5-4.1-5.7-10-2.9-13.1c2.8-3.1,8.9-2.2,13.3,2
		C264.8,819.6,266.1,825.5,263.1,828.6L263.1,828.6z M263.1,828.6"/>
	<path fill="#FFFFFF" d="M301.3,845.1c-1.2,4-7,5.8-12.8,4.1c-5.8-1.8-9.6-6.4-8.4-10.5c1.2-4,7-5.9,12.8-4.1
		C298.7,836.4,302.5,841.1,301.3,845.1L301.3,845.1z M301.3,845.1"/>
	<path fill="#FFFFFF" d="M343.1,848.2c0.1,4.2-4.8,7.7-10.9,7.8c-6.1,0.1-11.1-3.3-11.1-7.4c0-4.3,4.8-7.7,10.9-7.8
		C338.1,840.6,343.1,844,343.1,848.2L343.1,848.2z M343.1,848.2"/>
	<path fill="#FFFFFF" d="M382.1,841.6c0.7,4.1-3.5,8.3-9.5,9.5c-5.9,1.1-11.4-1.5-12.2-5.5c-0.7-4.2,3.6-8.4,9.5-9.5
		C375.9,834.9,381.3,837.4,382.1,841.6L382.1,841.6z M382.1,841.6"/>
</g>
</svg>
