<?xml version="1.0" encoding="iso-8859-1"?>
<!-- Generator: Adobe Illustrator 16.0.0, SVG Export Plug-In . SVG Version: 6.00 Build 0)  -->
<!DOCTYPE svg PUBLIC "-//W3C//DTD SVG 1.1//EN" "http://www.w3.org/Graphics/SVG/1.1/DTD/svg11.dtd">
<svg version="1.1" xmlns="http://www.w3.org/2000/svg" xmlns:xlink="http://www.w3.org/1999/xlink" x="0px" y="0px"
	 width="16.512px" height="25.451px" viewBox="0 0 16.512 25.451" style="enable-background:new 0 0 16.512 25.451;"
	 xml:space="preserve">
<g id="c185_triangle">
	<path style="fill:#000000;" d="M16.512,0.521v2.006L4.1,12.315c-0.121,0.101-0.195,0.251-0.195,0.41s0.074,0.311,0.195,0.41
		l12.412,9.79v2.005c0,0.199-0.115,0.383-0.297,0.469c-0.178,0.086-0.395,0.064-0.549-0.061L0.194,13.136
		C0.072,13.036,0,12.885,0,12.726s0.072-0.31,0.194-0.41L15.666,0.113c0.154-0.126,0.371-0.148,0.549-0.061
		C16.396,0.139,16.512,0.322,16.512,0.521z"/>
</g>
<g id="Capa_1">
</g>
</svg>
