<?xml version="1.0" encoding="utf-8"?>
<!-- Generator: Adobe Illustrator 17.1.0, SVG Export Plug-In . SVG Version: 6.00 Build 0)  -->
<!DOCTYPE svg PUBLIC "-//W3C//DTD SVG 1.1//EN" "http://www.w3.org/Graphics/SVG/1.1/DTD/svg11.dtd">
<svg version="1.1" id="Layer_1" xmlns="http://www.w3.org/2000/svg" xmlns:xlink="http://www.w3.org/1999/xlink" x="0px" y="0px"
	 viewBox="0 0 1024 1024" enable-background="new 0 0 1024 1024" xml:space="preserve">
<g>
	<g>
		<path fill="#EBBA1F" d="M5.6,772c0-173.8,0-347.7,0-521.5c0.7-8.1,1.2-16.1,2-24.2c1.2-12.1,2.2-24.3,4.2-36.2
			c3.1-18.6,7.5-36.9,15.5-54C52.7,82,92.8,43.3,149,22.2c21.8-8.2,44.6-11.8,67.6-13.8c11.2-0.9,22.5-1.4,33.7-2.1
			c0.4,0,0.8-0.5,1.1-0.8c173.2,0,346.4,0,519.5,0c5.8,0.7,11.5,1.4,17.3,2c13.1,1.3,26.3,2.7,39.5,3.9c20.1,1.9,39.4,7.2,57.5,15.4
			C937.9,50.7,976.1,89.3,998,143c11.9,29.3,15.9,60.3,17,91.7c0.2,5.6,1.3,11.2,1.9,16.7c0,174.2,0,348.3,0,522.5
			c-0.7,3.6-1.6,7.2-1.9,10.8c-1.4,14-2.8,28.1-4,42.2c-1.5,17.7-6.3,34.7-12.5,51.3c-7.5,20.2-18.4,38.5-32.2,55.1
			c-25.5,30.7-56,54.5-94.1,67.6c-30.2,10.3-61.5,14.1-93.3,15.2c-2,0.1-4,0.6-6,1c-174.8,0-349.7,0-524.5,0c-1.4-0.3-2.7-0.9-4.1-1
			c-6.2-0.4-12.4-0.4-18.6-1.1c-14.7-1.7-29.5-3.3-44.1-5.8C99.6,995,24,925.1,10.7,827.8c-2.3-16.9-2.8-34.1-4.2-51.2
			C6.4,775.1,5.9,773.6,5.6,772z M511.5,735.5c76.9,0,153.7,0,230.6,0c1.8,0,3.6-0.1,5.3-0.5c12.5-2.7,23.1-8.9,31.4-18.6
			c7.7-9.1,13-19.5,13-31.8c0-115.5,0-231.1,0-346.6c0-1.9-0.4-3.8-0.7-5.7c-2.4-12.7-9-23.1-18.7-31.3
			c-8.4-7.2-18.2-12.6-29.5-12.7c-154-0.2-308.1-0.1-462.1-0.1c-1.6,0-3.2,0.3-4.8,0.7c-12.6,2.5-23.1,8.9-31.3,18.7
			c-7.3,8.6-12.8,18.4-12.8,29.9c-0.2,116.4-0.1,232.7-0.1,349.1c0,1.6,0.3,3.2,0.6,4.8c2.6,12.6,8.9,23.1,18.7,31.3
			c9.1,7.7,19.5,12.9,31.9,12.9C359.1,735.5,435.3,735.5,511.5,735.5z"/>
		<path fill="#4264AF" d="M511.5,735.5c-76.2,0-152.4,0-228.6,0c-12.4,0-22.7-5.3-31.9-12.9c-9.8-8.2-16.1-18.8-18.7-31.3
			c-0.3-1.6-0.6-3.2-0.6-4.8c0-116.4-0.1-232.7,0.1-349.1c0-11.5,5.5-21.3,12.8-29.9c8.2-9.7,18.7-16.2,31.3-18.7
			c1.6-0.3,3.2-0.7,4.8-0.7c154,0,308.1-0.1,462.1,0.1c11.3,0,21,5.5,29.5,12.7c9.7,8.2,16.3,18.6,18.7,31.3
			c0.4,1.9,0.7,3.8,0.7,5.7c0,115.5,0,231.1,0,346.6c0,12.3-5.3,22.7-13,31.8c-8.2,9.8-18.8,15.9-31.4,18.6
			c-1.7,0.4-3.5,0.5-5.3,0.5C665.2,735.5,588.4,735.5,511.5,735.5z M288.4,344.5c0,111.8,0,223.1,0,334.4c149.2,0,298,0,446.8,0
			c0-111.6,0-223,0-334.4C586.1,344.5,437.4,344.5,288.4,344.5z"/>
		<path fill="#EBBA1F" d="M288.4,344.5c149,0,297.8,0,446.8,0c0,111.4,0,222.8,0,334.4c-148.8,0-297.6,0-446.8,0
			C288.4,567.6,288.4,456.3,288.4,344.5z M665.3,477.5c0.3-1.5,1-3,1-4.6c0.1-7.4,0.1-14.8,0-22.2c0-1.5-0.6-3-1-4.6
			c-2-7.2-2.7-14.5-6.7-21.3c-4.6-7.6-10.4-13.4-18.2-17.4c-9.9-5.1-20.7-6.7-31.5-6.6c-9.7,0.1-19.6,1.6-29.1,3.9
			c-8.5,2.1-15.6,7.3-21.2,14.3c-7.9,9.9-9.3,22.2-11.4,33.9c-2,10.9,0.5,21.9,3.3,32.7c4,15.3,14.6,26.4,24,38.3
			c11.4,14.4,11.6,29.3-4.9,39.6c-11.5,7.2-23.8,12.2-36.9,15.1c-5.5,1.2-7,5.2-7.2,8.7c-0.7,11-0.2,22.1-0.2,33.2
			c54.8,0,109.2,0,163.8,0c0.1-0.8,0.2-1.5,0.2-2.1c-0.6-11.5-1.2-23.1-2.1-34.6c-0.1-1.6-1.6-3.9-3-4.4c-7.2-2.6-14.8-4.4-22-7.2
			c-12.1-4.8-24.1-10-30.3-22.7c-1.2-2.5-1.9-5.9-1.4-8.6c1.7-9.9,8.7-17,14.8-24.3c7.9-9.4,14.3-19.5,18.2-31.1
			C664.2,483.1,664.7,480.3,665.3,477.5z M343.5,453.7c47.2,0,93.9,0,140.8,0c0-17.4,0-34.6,0-51.8c-47.1,0-93.8,0-140.8,0
			C343.5,419.2,343.5,436.3,343.5,453.7z M484.5,485.9c-47.3,0-94.1,0-140.8,0c0,17.5,0,34.6,0,51.8c47.1,0,93.9,0,140.8,0
			C484.5,520.3,484.5,503.2,484.5,485.9z M343.5,621.6c47.3,0,94.1,0,140.8,0c0-17.5,0-34.6,0-51.8c-47.1,0-93.9,0-140.8,0
			C343.5,587.2,343.5,604.2,343.5,621.6z"/>
		<path fill="#4264AF" d="M665.3,477.5c-0.7,2.7-1.1,5.6-2,8.2c-4,11.6-10.3,21.7-18.2,31.1c-6.1,7.3-13.1,14.4-14.8,24.3
			c-0.5,2.7,0.2,6,1.4,8.6c6.1,12.7,18.2,17.9,30.3,22.7c7.2,2.8,14.7,4.6,22,7.2c1.4,0.5,2.8,2.8,3,4.4c0.9,11.5,1.4,23,2.1,34.6
			c0,0.6-0.1,1.2-0.2,2.1c-54.5,0-108.9,0-163.8,0c0-11.2-0.4-22.2,0.2-33.2c0.2-3.5,1.6-7.4,7.2-8.7c13-2.9,25.4-8,36.9-15.1
			c16.6-10.3,16.3-25.2,4.9-39.6c-9.4-11.9-19.9-23.1-24-38.3c-2.9-10.7-5.3-21.8-3.3-32.7c2.1-11.7,3.5-24,11.4-33.9
			c5.6-7,12.7-12.3,21.2-14.3c9.5-2.3,19.4-3.8,29.1-3.9c10.7-0.1,21.6,1.5,31.5,6.6c7.8,4,13.6,9.8,18.2,17.4
			c4.1,6.7,4.7,14.1,6.7,21.3C665.3,456.7,665.3,467.1,665.3,477.5z"/>
		<path fill="#4264AF" d="M343.5,453.7c0-17.5,0-34.5,0-51.8c47,0,93.7,0,140.8,0c0,17.2,0,34.4,0,51.8
			C437.5,453.7,390.7,453.7,343.5,453.7z"/>
		<path fill="#4264AF" d="M484.5,485.9c0,17.3,0,34.4,0,51.8c-46.9,0-93.7,0-140.8,0c0-17.1,0-34.3,0-51.8
			C390.4,485.9,437.2,485.9,484.5,485.9z"/>
		<path fill="#4264AF" d="M343.5,621.6c0-17.4,0-34.4,0-51.8c46.9,0,93.7,0,140.8,0c0,17.1,0,34.3,0,51.8
			C437.5,621.6,390.8,621.6,343.5,621.6z"/>
		<path fill="#7F955C" d="M665.3,477.5c0-10.4,0-20.9,0-31.3c0.3,1.5,1,3,1,4.6c0.1,7.4,0.1,14.8,0,22.2
			C666.3,474.5,665.7,476,665.3,477.5z"/>
	</g>
</g>
</svg>
