<?xml version="1.0" encoding="utf-8"?>
<!-- Generator: Adobe Illustrator 17.1.0, SVG Export Plug-In . SVG Version: 6.00 Build 0)  -->
<!DOCTYPE svg PUBLIC "-//W3C//DTD SVG 1.1//EN" "http://www.w3.org/Graphics/SVG/1.1/DTD/svg11.dtd">
<svg version="1.1" id="Layer_1" xmlns="http://www.w3.org/2000/svg" xmlns:xlink="http://www.w3.org/1999/xlink" x="0px" y="0px"
	 viewBox="0 0 32 32" enable-background="new 0 0 32 32" xml:space="preserve">
<g>
	<path fill="#FFFFFF" d="M1.3,11.7c-0.7,0.3-1.2,0.9-1.3,1.6c-0.1,0.7,0.2,1.4,0.8,1.9l6.5,4.7L30.4,1.7L10,21.8l8.9,6.5
		c0.6,0.4,1.3,0.5,2,0.3c0.7-0.2,1.2-0.7,1.4-1.4l9.5-26c0.1-0.3,0-0.6-0.2-0.8c-0.2-0.2-0.5-0.3-0.8-0.2L1.3,11.7z"/>
	<path fill="#FFFFFF" d="M5.8,21.5l0.1,0.3l1.3,6.9c0.1,0.5,0.4,0.9,0.9,1.1C8.5,30,9,30,9.5,29.7c1.8-1.1,4-2.6,4-2.7L5.8,21.5z"/>
</g>
</svg>
