<?xml version="1.0" encoding="utf-8"?>
<!-- Generator: Adobe Illustrator 17.1.0, SVG Export Plug-In . SVG Version: 6.00 Build 0)  -->
<!DOCTYPE svg PUBLIC "-//W3C//DTD SVG 1.1//EN" "http://www.w3.org/Graphics/SVG/1.1/DTD/svg11.dtd">
<svg version="1.1" id="Layer_1" xmlns="http://www.w3.org/2000/svg" xmlns:xlink="http://www.w3.org/1999/xlink" x="0px" y="0px"
	 viewBox="0 0 50 50" enable-background="new 0 0 50 50" xml:space="preserve">
<g>
	<polygon fill="#FFFFFF" points="14.7,13.3 14.7,18.2 19,15.8 	"/>
	<polygon fill="#FFFFFF" points="14.7,19.5 14.7,24.4 19,21.9 	"/>
	<polygon fill="#FFFFFF" points="14.7,31.8 14.7,36.7 19,34.2 	"/>
	<polygon fill="#FFFFFF" points="15.1,37.3 19.3,39.7 19.3,34.8 	"/>
	<polygon fill="#FFFFFF" points="15.1,25 19.3,27.5 19.3,22.5 	"/>
	<polygon fill="#FFFFFF" points="15.1,18.9 19.3,21.3 19.3,16.4 	"/>
	<polygon fill="#FFFFFF" points="15.1,12.7 19.3,15.2 19.3,10.3 	"/>
	<polygon fill="#FFFFFF" points="20,10.3 20,15.2 24.3,12.7 	"/>
	<polygon fill="#FFFFFF" points="20,16.4 20,21.3 24.3,18.9 	"/>
	<polygon fill="#FFFFFF" points="20,22.5 20,27.5 24.3,25 	"/>
	<polygon fill="#FFFFFF" points="20,28.7 20,33.6 24.3,31.1 	"/>
	<polygon fill="#FFFFFF" points="20,34.8 20,39.7 24.3,37.3 	"/>
	<polygon fill="#FFFFFF" points="20.4,40.4 24.6,42.8 24.6,37.9 	"/>
	<polygon fill="#FFFFFF" points="20.4,34.2 24.6,36.7 24.6,31.8 	"/>
	<polygon fill="#FFFFFF" points="20.4,28.1 24.6,30.5 24.6,25.6 	"/>
	<polygon fill="#FFFFFF" points="20.4,21.9 24.6,24.4 24.6,19.5 	"/>
	<polygon fill="#FFFFFF" points="20.4,9.6 24.6,12.1 24.6,7.2 	"/>
	<polygon fill="#FFFFFF" points="9.4,16.4 9.4,21.3 13.7,18.9 	"/>
	<polygon fill="#FFFFFF" points="9.4,22.5 9.4,27.5 13.7,25 	"/>
	<polygon fill="#FFFFFF" points="9.4,28.7 9.4,33.6 13.7,31.1 	"/>
	<polygon fill="#FFFFFF" points="9.8,34.2 14,36.7 14,31.8 	"/>
	<polygon fill="#FFFFFF" points="9.8,28.1 14,30.5 14,25.6 	"/>
	<polygon fill="#FFFFFF" points="9.8,21.9 14,24.4 14,19.5 	"/>
	<polygon fill="#FFFFFF" points="9.8,15.8 14,18.2 14,13.3 	"/>
	<polygon fill="#FFFFFF" points="25.4,7.2 25.4,12.1 29.6,9.6 	"/>
	<polygon fill="#FFFFFF" points="25.4,19.5 25.4,24.4 29.6,21.9 	"/>
	<polygon fill="#FFFFFF" points="25.4,25.6 25.4,30.5 29.6,28.1 	"/>
	<polygon fill="#FFFFFF" points="25.4,31.8 25.4,36.7 29.6,34.2 	"/>
	<polygon fill="#FFFFFF" points="25.4,37.9 25.4,42.8 29.6,40.4 	"/>
	<polygon fill="#FFFFFF" points="25.7,37.3 30,39.7 30,34.8 	"/>
	<polygon fill="#FFFFFF" points="25.7,31.1 30,33.6 30,28.7 	"/>
	<polygon fill="#FFFFFF" points="25.7,25 30,27.5 30,22.5 	"/>
	<polygon fill="#FFFFFF" points="25.7,18.9 30,21.3 30,16.4 	"/>
	<polygon fill="#FFFFFF" points="25.7,12.7 30,15.2 30,10.3 	"/>
	<polygon fill="#FFFFFF" points="30.7,10.3 30.7,15.2 34.9,12.7 	"/>
	<polygon fill="#FFFFFF" points="30.7,16.4 30.7,21.3 34.9,18.9 	"/>
	<polygon fill="#FFFFFF" points="30.7,22.5 30.7,27.5 34.9,25 	"/>
	<polygon fill="#FFFFFF" points="30.7,34.8 30.7,39.7 34.9,37.3 	"/>
	<polygon fill="#FFFFFF" points="31,34.2 35.3,36.7 35.3,31.8 	"/>
	<polygon fill="#FFFFFF" points="31,21.9 35.3,24.4 35.3,19.5 	"/>
	<polygon fill="#FFFFFF" points="31,15.8 35.3,18.2 35.3,13.3 	"/>
	<polygon fill="#FFFFFF" points="36,13.3 36,18.2 40.2,15.8 	"/>
	<polygon fill="#FFFFFF" points="36,19.5 36,24.4 40.2,21.9 	"/>
	<polygon fill="#FFFFFF" points="36,25.6 36,30.5 40.2,28.1 	"/>
	<polygon fill="#FFFFFF" points="36,31.8 36,36.7 40.2,34.2 	"/>
	<polygon fill="#FFFFFF" points="36.3,31.1 40.6,33.6 40.6,28.7 	"/>
	<polygon fill="#FFFFFF" points="36.3,25 40.6,27.5 40.6,22.5 	"/>
	<polygon fill="#FFFFFF" points="36.3,18.9 40.6,21.3 40.6,16.4 	"/>
</g>
</svg>
